HIERARCHY
ROOT mug2
{
	OFFSET 0.000000 0.000000 0.000000
	CHANNELS 6 Xposition Yposition Zposition Yrotation Xrotation Zrotation
	End Site
	{
		OFFSET 0.000000 0.000000 0.000000
	}
}
MOTION
Frames: 86
Frame Time: 0.008333334
1.208080 7.306931 4.450591 76.054610 10.745620 65.911380 
1.218710 7.299835 4.432745 76.205260 11.327150 64.749790 
1.230934 7.291321 4.412132 76.480840 11.922640 63.632470 
1.242103 7.281415 4.389980 76.245800 12.471760 62.151980 
1.255680 7.269498 4.365653 76.411890 13.074470 60.873200 
1.269636 7.255914 4.339546 76.491910 13.648310 59.592700 
1.284512 7.240717 4.312662 76.373220 14.289070 58.192990 
1.298921 7.224439 4.283897 76.332320 14.863340 56.934910 
1.314564 7.205569 4.255192 76.406710 15.423650 55.605670 
1.326995 7.187038 4.231807 74.884030 15.675810 53.184660 
1.342546 7.166022 4.203974 74.576280 16.055150 51.769650 
1.358507 7.142700 4.175389 74.414020 16.578330 50.543100 
1.374652 7.117810 4.144943 74.260020 17.121200 49.359420 
1.391347 7.092757 4.115636 73.984710 17.467700 47.703120 
1.407796 7.064692 4.083639 73.669270 17.963560 46.342830 
1.425392 7.035944 4.051227 73.339360 18.388660 44.807500 
1.443034 7.006136 4.018403 72.853160 18.697450 43.104470 
1.459903 6.974733 3.985226 72.382480 19.199040 41.537950 
1.478047 6.942019 3.953190 71.966030 19.514080 39.982570 
1.490487 6.913816 3.925810 70.130970 18.905770 36.826210 
1.510616 6.877461 3.892463 70.508290 19.663060 36.141300 
1.527574 6.842104 3.863534 70.143080 20.010950 34.869790 
1.543899 6.806826 3.835851 69.763650 20.343370 33.449680 
1.560458 6.770061 3.808482 69.484750 20.715410 32.240350 
1.577040 6.734081 3.783051 69.041940 20.995060 30.874720 
1.593282 6.697145 3.757508 68.685200 21.345360 29.702060 
1.609715 6.660573 3.733017 68.238330 21.520010 28.330980 
1.625834 6.624345 3.709303 67.843790 21.853090 27.171130 
1.641307 6.590089 3.687205 67.091900 21.696760 25.525010 
1.657874 6.551996 3.663018 67.308240 22.752060 25.215000 
1.672903 6.516787 3.643271 66.943670 23.117000 24.135830 
1.687571 6.482854 3.623878 66.559780 23.317280 22.980200 
1.701345 6.449215 3.606523 66.144420 23.551520 21.847060 
1.713771 6.415403 3.589807 65.785770 23.923410 20.932380 
1.725707 6.383313 3.574434 65.495810 24.147800 19.935250 
1.736163 6.350789 3.560140 65.224370 24.592280 19.084690 
1.746051 6.321043 3.547078 64.916590 24.667230 17.857700 
1.755022 6.291216 3.535706 64.756090 24.797830 16.878190 
1.762898 6.262582 3.525905 64.384540 24.728430 15.786500 
1.768322 6.235165 3.515754 64.189770 24.987660 15.098590 
1.772191 6.210923 3.508154 63.441410 24.587810 13.892090 
1.777999 6.183776 3.500927 63.806800 25.175510 13.987430 
1.783219 6.160664 3.496337 63.605610 24.871620 13.458050 
1.782426 6.143640 3.493472 62.797740 24.071260 12.542220 
1.785317 6.120903 3.490552 63.018770 24.435550 13.009080 
1.785959 6.101119 3.486958 63.356300 24.564130 13.464260 
1.786938 6.083322 3.486835 63.424440 24.270310 13.693280 
1.784374 6.067756 3.487609 63.323770 23.887430 13.867120 
1.781709 6.053050 3.488313 63.242870 23.429190 14.173840 
1.777787 6.039482 3.490872 63.188120 23.046580 14.564760 
1.773932 6.025707 3.493237 63.308040 22.618190 15.125230 
1.768778 6.013010 3.496264 63.252880 22.151440 15.711090 
1.763447 6.002532 3.500303 63.347480 21.732890 16.291240 
1.755986 5.991360 3.504544 63.246380 21.253780 16.890580 
1.749041 5.980940 3.510343 63.337750 20.847710 17.518220 
1.741821 5.971211 3.515192 63.461470 20.434140 18.249820 
1.734873 5.964447 3.523500 63.199860 19.349960 18.373510 
1.727087 5.956091 3.530136 63.344730 18.875090 19.072860 
1.720643 5.947380 3.535460 63.881100 18.738310 20.115400 
1.710181 5.942239 3.541954 63.718490 18.383490 20.680360 
1.704872 5.939356 3.551452 63.653340 17.343060 20.778780 
1.694067 5.939483 3.558517 63.203990 16.550300 20.747560 
1.688198 5.938411 3.566891 63.360070 16.173720 21.305940 
1.684549 5.935423 3.573519 64.185620 16.809010 22.703000 
1.680313 5.938374 3.584563 64.231230 16.236550 23.053310 
1.671812 5.945754 3.594252 63.820720 15.522600 22.964650 
1.670629 5.946770 3.602353 64.798620 16.119190 24.609040 
1.664873 5.954349 3.613498 64.697930 15.661990 25.003970 
1.657730 5.961202 3.620827 64.942930 15.751070 26.156830 
1.653388 5.970978 3.633371 64.906610 15.016690 26.705750 
1.644260 5.983132 3.643336 64.429160 14.154920 27.043710 
1.638681 5.990892 3.653279 64.914870 14.421390 28.511230 
1.631068 6.005404 3.664642 64.610290 13.277590 28.713190 
1.626043 6.014463 3.673347 65.280400 13.611470 30.489740 
1.618328 6.029892 3.685418 64.928560 12.789370 30.953230 
1.613369 6.043013 3.696394 65.414280 12.739640 32.294370 
1.605656 6.060057 3.708600 65.364330 12.419720 33.058410 
1.598770 6.078313 3.722501 65.360950 12.017710 33.773620 
1.593309 6.095281 3.735942 66.032620 12.158970 35.216000 
1.585129 6.114773 3.751027 66.307220 12.197670 36.258250 
1.577987 6.135361 3.767853 66.777910 11.947670 37.309860 
1.566153 6.159911 3.787378 65.982800 10.789640 37.430190 
1.557951 6.178023 3.804734 66.436210 10.889940 38.921460 
1.549346 6.195237 3.821293 67.378720 11.193560 40.976820 
1.537616 6.213386 3.839256 67.487720 10.831740 42.468370 
1.525781 6.231661 3.858510 67.558750 10.266250 43.840230 
